<?xml version="1.0" standalone="no"?>
<!DOCTYPE svg PUBLIC "-//W3C//DTD SVG 20010904//EN"
 "http://www.w3.org/TR/2001/REC-SVG-20010904/DTD/svg10.dtd">
<svg version="1.0" xmlns="http://www.w3.org/2000/svg"
 width="150.000000pt" height="45.000000pt" viewBox="0 0 150.000000 45.000000"
 preserveAspectRatio="xMidYMid meet">

<g transform="translate(0.000000,45.000000) scale(0.100000,-0.100000)"
fill="#000000" stroke="none">
<path d="M97 403 c-4 -3 -7 -82 -7 -175 l0 -168 685 0 685 0 0 175 0 175 -678
0 c-373 0 -682 -3 -685 -7z m1343 -168 l0 -165 -670 0 -670 0 0 159 c0 144 2
160 18 164 9 3 311 5 670 6 l652 1 0 -165z"/>
<path d="M550 230 c0 -33 4 -60 10 -60 6 0 10 10 10 23 l1 22 18 -22 c26 -31
35 -29 15 2 -14 21 -14 28 -3 43 11 14 9 13 -9 -2 l-22 -19 0 36 c0 21 -4 37
-10 37 -6 0 -10 -27 -10 -60z"/>
<path d="M643 230 c0 -36 2 -51 4 -35 10 64 49 69 56 7 l4 -37 1 41 c2 43 -12
59 -42 48 -9 -4 -16 3 -19 18 -2 13 -4 -6 -4 -42z"/>
<path d="M1153 230 c0 -36 2 -49 4 -28 7 62 46 57 56 -7 4 -28 4 -28 6 6 1 40
-17 63 -42 53 -11 -4 -17 2 -20 18 -2 13 -4 -6 -4 -42z"/>
<path d="M162 223 l1 -58 6 50 6 50 18 -48 c10 -26 23 -45 28 -42 4 3 14 25
21 48 l13 42 6 -50 6 -50 1 58 c1 31 -2 57 -7 57 -5 0 -17 -19 -26 -42 l-17
-43 -19 43 c-25 59 -39 53 -37 -15z"/>
<path d="M372 273 c13 -3 18 -18 21 -56 l3 -52 2 52 c2 45 5 52 25 56 12 2 2
4 -23 4 -25 1 -37 -1 -28 -4z"/>
<path d="M736 262 c-2 -4 -1 -25 3 -47 4 -28 12 -40 24 -41 12 -2 13 -1 2 3
-17 5 -20 54 -4 70 7 7 6 12 -5 16 -8 3 -17 3 -20 -1z"/>
<path d="M318 253 c-13 -3 -18 -15 -18 -44 0 -21 5 -39 10 -39 6 0 10 16 10
35 0 24 5 35 15 35 8 0 15 5 15 10 0 10 -3 11 -32 3z"/>
<path d="M805 249 c-4 -6 0 -9 10 -7 10 2 20 -2 22 -9 2 -6 -6 -13 -19 -15
-15 -2 -23 -10 -23 -23 0 -16 7 -20 33 -21 30 -1 32 1 32 31 0 44 -37 74 -55
44z m35 -49 c0 -12 -28 -25 -36 -17 -9 9 6 27 22 27 8 0 14 -5 14 -10z"/>
<path d="M898 252 c-14 -3 -18 -13 -18 -43 0 -50 18 -51 22 -1 4 52 31 50 39
-3 l6 -40 2 38 c0 20 6 37 11 37 6 0 13 0 18 0 4 1 10 -16 13 -37 7 -38 7 -37
5 7 l-1 45 -40 0 c-22 1 -48 -1 -57 -3z"/>
<path d="M1073 243 c-4 -11 1 -22 15 -31 28 -18 28 -29 0 -35 -21 -4 -20 -4 3
-6 37 -2 45 25 14 45 -26 17 -24 40 2 30 8 -3 11 -1 8 4 -10 16 -35 12 -42 -7z"/>
<path d="M1256 244 c-32 -32 -12 -75 34 -73 l25 1 -24 7 c-34 9 -39 31 -7 31
19 0 26 5 26 19 0 10 -7 22 -16 25 -21 8 -20 8 -38 -10z m42 -12 c2 -7 -6 -12
-17 -12 -21 0 -27 11 -14 24 9 9 26 2 31 -12z"/>
<path d="M1382 239 c-5 -13 -12 -31 -15 -39 -3 -10 -9 -4 -17 18 -7 18 -14 31
-17 28 -8 -8 21 -76 31 -73 11 4 38 78 31 85 -2 3 -8 -6 -13 -19z"/>
<path d="M462 212 l-2 -43 35 3 c33 2 35 4 35 40 0 21 -4 38 -10 38 -5 0 -10
-16 -10 -35 0 -28 -4 -35 -19 -35 -15 0 -21 8 -24 38 l-4 37 -1 -43z"/>
<path d="M1033 210 c0 -25 2 -35 4 -22 2 12 2 32 0 45 -2 12 -4 2 -4 -23z"/>
</g>
</svg>
